<?xml version="1.0" encoding="UTF-8" standalone="no"?>
<!-- Created with Inkscape (http://www.inkscape.org/) -->

<svg
   xmlns:dc="http://purl.org/dc/elements/1.1/"
   xmlns:cc="http://creativecommons.org/ns#"
   xmlns:rdf="http://www.w3.org/1999/02/22-rdf-syntax-ns#"
   xmlns:svg="http://www.w3.org/2000/svg"
   xmlns="http://www.w3.org/2000/svg"
   xmlns:sodipodi="http://sodipodi.sourceforge.net/DTD/sodipodi-0.dtd"
   xmlns:inkscape="http://www.inkscape.org/namespaces/inkscape"
   width="210mm"
   height="297mm"
   viewBox="0 0 744.09448819 1052.3622047"
   id="svg2"
   version="1.1"
   inkscape:version="0.91 r13725"
   sodipodi:docname="FOX.svg">
  <defs
     id="defs4">
    <marker
       inkscape:stockid="Arrow2Lend"
       orient="auto"
       refY="0.0"
       refX="0.0"
       id="marker9826"
       style="overflow:visible;"
       inkscape:isstock="true">
      <path
         id="path9828"
         style="fill-rule:evenodd;stroke-width:0.625;stroke-linejoin:round;stroke:#000000;stroke-opacity:1;fill:#000000;fill-opacity:1"
         d="M 8.7185878,4.0337352 L -2.2072895,0.016013256 L 8.7185884,-4.0017078 C 6.9730900,-1.6296469 6.9831476,1.6157441 8.7185878,4.0337352 z "
         transform="scale(1.1) rotate(180) translate(1,0)" />
    </marker>
    <marker
       inkscape:stockid="Arrow1Sstart"
       orient="auto"
       refY="0.0"
       refX="0.0"
       id="Arrow1Sstart"
       style="overflow:visible"
       inkscape:isstock="true">
      <path
         id="path4170"
         d="M 0.0,0.0 L 5.0,-5.0 L -12.5,0.0 L 5.0,5.0 L 0.0,0.0 z "
         style="fill-rule:evenodd;stroke:#000000;stroke-width:1pt;stroke-opacity:1;fill:#ffffff;fill-opacity:1"
         transform="scale(0.2) translate(6,0)" />
    </marker>
    <marker
       inkscape:stockid="Arrow2Lstart"
       orient="auto"
       refY="0.0"
       refX="0.0"
       id="Arrow2Lstart"
       style="overflow:visible"
       inkscape:isstock="true">
      <path
         id="path4176"
         style="fill-rule:evenodd;stroke-width:0.625;stroke-linejoin:round;stroke:#000000;stroke-opacity:1;fill:#000000;fill-opacity:1"
         d="M 8.7185878,4.0337352 L -2.2072895,0.016013256 L 8.7185884,-4.0017078 C 6.9730900,-1.6296469 6.9831476,1.6157441 8.7185878,4.0337352 z "
         transform="scale(1.1) translate(1,0)" />
    </marker>
    <marker
       inkscape:stockid="Club"
       orient="auto"
       refY="0.0"
       refX="0.0"
       id="Club"
       style="overflow:visible"
       inkscape:isstock="true">
      <path
         id="path4387"
         d="M -1.5971367,-7.0977635 C -3.4863874,-7.0977635 -5.0235187,-5.5606321 -5.0235187,-3.6713813 C -5.0235187,-3.0147015 -4.7851656,-2.4444556 -4.4641095,-1.9232271 C -4.5028609,-1.8911157 -4.5437814,-1.8647646 -4.5806531,-1.8299921 C -5.2030765,-2.6849849 -6.1700514,-3.2751330 -7.3077730,-3.2751330 C -9.1970245,-3.2751331 -10.734155,-1.7380016 -10.734155,0.15124914 C -10.734155,2.0404999 -9.1970245,3.5776313 -7.3077730,3.5776313 C -6.3143268,3.5776313 -5.4391540,3.1355702 -4.8137404,2.4588126 C -4.9384274,2.8137041 -5.0235187,3.1803000 -5.0235187,3.5776313 C -5.0235187,5.4668819 -3.4863874,7.0040135 -1.5971367,7.0040135 C 0.29211394,7.0040135 1.8292454,5.4668819 1.8292454,3.5776313 C 1.8292454,2.7842354 1.5136868,2.0838028 1.0600576,1.5031550 C 2.4152718,1.7663868 3.7718375,2.2973711 4.7661444,3.8340272 C 4.0279463,3.0958289 3.5540908,1.7534117 3.5540908,-0.058529361 L 2.9247554,-0.10514681 L 3.5074733,-0.12845553 C 3.5074733,-1.9403966 3.9580199,-3.2828138 4.6962183,-4.0210121 C 3.7371277,-2.5387813 2.4390549,-1.9946496 1.1299838,-1.7134486 C 1.5341802,-2.2753578 1.8292454,-2.9268556 1.8292454,-3.6713813 C 1.8292454,-5.5606319 0.29211394,-7.0977635 -1.5971367,-7.0977635 z "
         style="fill-rule:evenodd;stroke:#000000;stroke-width:0.74587913pt;stroke-opacity:1;fill:#000000;fill-opacity:1"
         transform="scale(0.6)" />
    </marker>
    <marker
       inkscape:stockid="DotL"
       orient="auto"
       refY="0.0"
       refX="0.0"
       id="DotL"
       style="overflow:visible"
       inkscape:isstock="true">
      <path
         id="path4219"
         d="M -2.5,-1.0 C -2.5,1.7600000 -4.7400000,4.0 -7.5,4.0 C -10.260000,4.0 -12.5,1.7600000 -12.5,-1.0 C -12.5,-3.7600000 -10.260000,-6.0 -7.5,-6.0 C -4.7400000,-6.0 -2.5,-3.7600000 -2.5,-1.0 z "
         style="fill-rule:evenodd;stroke:#000000;stroke-width:1pt;stroke-opacity:1;fill:#000000;fill-opacity:1"
         transform="scale(0.8) translate(7.4, 1)" />
    </marker>
    <marker
       inkscape:stockid="SemiCircleIn"
       orient="auto"
       refY="0.0"
       refX="0.0"
       id="SemiCircleIn"
       style="overflow:visible"
       inkscape:isstock="true">
      <path
         id="path4336"
         d="M -0.37450702,-0.045692580 C -0.37450702,2.7143074 1.8654930,4.9543074 4.6254930,4.9543074 L 4.6254930,-5.0456926 C 1.8654930,-5.0456926 -0.37450702,-2.8056926 -0.37450702,-0.045692580 z "
         style="fill-rule:evenodd;stroke:#000000;stroke-width:1pt;stroke-opacity:1;fill:#000000;fill-opacity:1"
         transform="scale(0.6)" />
    </marker>
    <marker
       inkscape:stockid="Arrow1Mend"
       orient="auto"
       refY="0.0"
       refX="0.0"
       id="Arrow1Mend"
       style="overflow:visible;"
       inkscape:isstock="true">
      <path
         id="path4167"
         d="M 0.0,0.0 L 5.0,-5.0 L -12.5,0.0 L 5.0,5.0 L 0.0,0.0 z "
         style="fill-rule:evenodd;stroke:#000000;stroke-width:1pt;stroke-opacity:1;fill:#ffffff;fill-opacity:1"
         transform="scale(0.4) rotate(180) translate(10,0)" />
    </marker>
    <marker
       inkscape:stockid="Arrow2Lend"
       orient="auto"
       refY="0.0"
       refX="0.0"
       id="Arrow2Lend"
       style="overflow:visible;"
       inkscape:isstock="true">
      <path
         id="path4179"
         style="fill-rule:evenodd;stroke-width:0.625;stroke-linejoin:round;stroke:#eb781e;stroke-opacity:1;fill:#ffffff;fill-opacity:1"
         d="M 8.7185878,4.0337352 L -2.2072895,0.016013256 L 8.7185884,-4.0017078 C 6.9730900,-1.6296469 6.9831476,1.6157441 8.7185878,4.0337352 z "
         transform="scale(1.1) rotate(180) translate(1,0)" />
    </marker>
    <marker
       inkscape:stockid="DiamondLend"
       orient="auto"
       refY="0.0"
       refX="0.0"
       id="DiamondLend"
       style="overflow:visible"
       inkscape:isstock="true">
      <path
         id="path4255"
         d="M 0,-7.0710768 L -7.0710894,0 L 0,7.0710589 L 7.0710462,0 L 0,-7.0710768 z "
         style="fill-rule:evenodd;stroke:#000000;stroke-width:1pt;stroke-opacity:1;fill:#000000;fill-opacity:1"
         transform="scale(0.8) translate(-7,0)" />
    </marker>
    <marker
       inkscape:stockid="EmptyTriangleInL"
       orient="auto"
       refY="0.0"
       refX="0.0"
       id="EmptyTriangleInL"
       style="overflow:visible"
       inkscape:isstock="true">
      <path
         id="path4309"
         d="M 5.77,0.0 L -2.88,5.0 L -2.88,-5.0 L 5.77,0.0 z "
         style="fill-rule:evenodd;fill:#ffffff;stroke:#000000;stroke-width:1pt;stroke-opacity:1"
         transform="scale(-0.8) translate(-6,0)" />
    </marker>
    <marker
       inkscape:stockid="Tail"
       orient="auto"
       refY="0.0"
       refX="0.0"
       id="Tail"
       style="overflow:visible"
       inkscape:isstock="true">
      <g
         id="g4194"
         transform="scale(-1.2)"
         style="stroke:#000000;stroke-opacity:1;fill:#000000;fill-opacity:1">
        <path
           id="path4196"
           d="M -3.8048674,-3.9585227 L 0.54352094,0"
           style="fill:#000000;fill-rule:evenodd;stroke:#000000;stroke-width:0.8;stroke-linecap:round;stroke-opacity:1;fill-opacity:1" />
        <path
           id="path4198"
           d="M -1.2866832,-3.9585227 L 3.0617053,0"
           style="fill:#000000;fill-rule:evenodd;stroke:#000000;stroke-width:0.8;stroke-linecap:round;stroke-opacity:1;fill-opacity:1" />
        <path
           id="path4200"
           d="M 1.3053582,-3.9585227 L 5.6537466,0"
           style="fill:#000000;fill-rule:evenodd;stroke:#000000;stroke-width:0.8;stroke-linecap:round;stroke-opacity:1;fill-opacity:1" />
        <path
           id="path4202"
           d="M -3.8048674,4.1775838 L 0.54352094,0.21974226"
           style="fill:#000000;fill-rule:evenodd;stroke:#000000;stroke-width:0.8;stroke-linecap:round;stroke-opacity:1;fill-opacity:1" />
        <path
           id="path4204"
           d="M -1.2866832,4.1775838 L 3.0617053,0.21974226"
           style="fill:#000000;fill-rule:evenodd;stroke:#000000;stroke-width:0.8;stroke-linecap:round;stroke-opacity:1;fill-opacity:1" />
        <path
           id="path4206"
           d="M 1.3053582,4.1775838 L 5.6537466,0.21974226"
           style="fill:#000000;fill-rule:evenodd;stroke:#000000;stroke-width:0.8;stroke-linecap:round;stroke-opacity:1;fill-opacity:1" />
      </g>
    </marker>
    <marker
       inkscape:stockid="Arrow2Mend"
       orient="auto"
       refY="0.0"
       refX="0.0"
       id="Arrow2Mend"
       style="overflow:visible;"
       inkscape:isstock="true">
      <path
         id="path4185"
         style="fill-rule:evenodd;stroke-width:0.625;stroke-linejoin:round;stroke:#000000;stroke-opacity:1;fill:#000000;fill-opacity:1"
         d="M 8.7185878,4.0337352 L -2.2072895,0.016013256 L 8.7185884,-4.0017078 C 6.9730900,-1.6296469 6.9831476,1.6157441 8.7185878,4.0337352 z "
         transform="scale(0.6) rotate(180) translate(0,0)" />
    </marker>
    <marker
       inkscape:stockid="Arrow1Lend"
       orient="auto"
       refY="0.0"
       refX="0.0"
       id="marker4460"
       style="overflow:visible;"
       inkscape:isstock="true">
      <path
         id="path4462"
         d="M 0.0,0.0 L 5.0,-5.0 L -12.5,0.0 L 5.0,5.0 L 0.0,0.0 z "
         style="fill-rule:evenodd;stroke:#000000;stroke-width:1pt;stroke-opacity:1;fill:#000000;fill-opacity:1"
         transform="scale(0.8) rotate(180) translate(12.5,0)" />
    </marker>
    <marker
       inkscape:stockid="Arrow1Lstart"
       orient="auto"
       refY="0.0"
       refX="0.0"
       id="Arrow1Lstart"
       style="overflow:visible"
       inkscape:isstock="true">
      <path
         id="path4158"
         d="M 0.0,0.0 L 5.0,-5.0 L -12.5,0.0 L 5.0,5.0 L 0.0,0.0 z "
         style="fill-rule:evenodd;stroke:#000000;stroke-width:1pt;stroke-opacity:1;fill:#000000;fill-opacity:1"
         transform="scale(0.8) translate(12.5,0)" />
    </marker>
    <marker
       inkscape:stockid="Arrow1Lend"
       orient="auto"
       refY="0.0"
       refX="0.0"
       id="Arrow1Lend"
       style="overflow:visible;"
       inkscape:isstock="true">
      <path
         id="path4161"
         d="M 0.0,0.0 L 5.0,-5.0 L -12.5,0.0 L 5.0,5.0 L 0.0,0.0 z "
         style="fill-rule:evenodd;stroke:#000000;stroke-width:1pt;stroke-opacity:1;fill:#000000;fill-opacity:1"
         transform="scale(0.8) rotate(180) translate(12.5,0)" />
    </marker>
  </defs>
  <sodipodi:namedview
     id="base"
     pagecolor="#ffffff"
     bordercolor="#666666"
     borderopacity="1.0"
     inkscape:pageopacity="0.0"
     inkscape:pageshadow="2"
     inkscape:zoom="1.3224234"
     inkscape:cx="275.23771"
     inkscape:cy="710.82128"
     inkscape:document-units="px"
     inkscape:current-layer="layer1"
     showgrid="false"
     inkscape:window-width="1920"
     inkscape:window-height="1017"
     inkscape:window-x="-8"
     inkscape:window-y="-8"
     inkscape:window-maximized="1" />
  <metadata
     id="metadata7">
    <rdf:RDF>
      <cc:Work
         rdf:about="">
        <dc:format>image/svg+xml</dc:format>
        <dc:type
           rdf:resource="http://purl.org/dc/dcmitype/StillImage" />
        <dc:title></dc:title>
      </cc:Work>
    </rdf:RDF>
  </metadata>
  <g
     inkscape:label="Layer 1"
     inkscape:groupmode="layer"
     id="layer1">
    <path
       style="fill:none;fill-rule:evenodd;stroke:#000000;stroke-width:1px;stroke-linecap:butt;stroke-linejoin:miter;stroke-opacity:1"
       d="m 400,345.93363 c 0,0 6.42857,-2.14285 12.85714,4.28572 6.42857,6.42857 7.85715,19.28571 7.85715,19.28571 0,0 -2.85715,45.71429 7.14285,66.42857 10,20.71429 5.71429,21.42857 5.71429,21.42857 l 3.57143,-7.14285 2.85714,15 2.14286,-6.42857 c 0,0 19.28571,22.85714 50,18.57142 30.71428,-4.28571 45.71428,-16.42857 58.57143,-31.42857 12.85714,-15 17.14285,-15.71428 17.14285,-15.71428 l -10.71428,2.85714 11.42857,-7.14286 -7.14286,1.42857 6.42857,-5 -4.28571,0 2.85714,-3.57142 -0.71428,-5 c 0,0 10,-37.14286 38.57142,-34.28572 -15,-16.42857 -33.57142,-11.42857 -33.57142,-11.42857 l -54.28572,62.85714 -55,7.85715 L 435.71429,383.07649 425,350.21935 l -16.42857,-9.28572 -17.14286,0.71429 z"
       id="path11751"
       inkscape:connector-curvature="0"
       sodipodi:nodetypes="cscsccccssccccccccccccccccc" />
    <path
       style="fill:#ff9955;fill-opacity:1;fill-rule:evenodd;stroke:#000000;stroke-width:1px;stroke-linecap:butt;stroke-linejoin:miter;stroke-opacity:1"
       d="m 325.56977,372.20774 c 0,0 33.50235,-18.70948 29.98491,-1.71649 -6.52499,31.5226 20.5476,56.94823 20.5476,56.94823 l -0.0149,72.86064 -17.84946,0.88567 c 0,0 2.05041,-7.16285 12.78798,-7.26594 0,0 4.51847,-38.8484 -4.14722,-59.96296 -5.97652,-14.56223 -27.93815,-8.30361 -40.97297,-26.75077 -28.79486,-40.75108 -0.33597,-34.99838 -0.33597,-34.99838 z"
       id="path11728-7"
       inkscape:connector-curvature="0"
       sodipodi:nodetypes="cscccsssc" />
    <path
       style="fill:#ff9955;fill-opacity:1;fill-rule:evenodd;stroke:#000000;stroke-width:1px;stroke-linecap:butt;stroke-linejoin:miter;stroke-opacity:1"
       d="m 264.97175,387.90095 9.28571,45.71429 -0.71428,81.42857 c 0,0 -9.28572,-4.28572 -13.57143,2.85714 -4.28571,7.14286 18.57143,2.14286 18.57143,2.14286 l 3.57143,-85 c 0,0 3.57143,-37.14286 -7.85715,-42.85714 -11.42857,-5.71429 -9.28571,-4.28572 -9.28571,-4.28572 z"
       id="path11711"
       inkscape:connector-curvature="0" />
    <path
       style="fill:#ff9955;fill-opacity:1;stroke:#000000;stroke-width:1;stroke-linejoin:round;stroke-miterlimit:4;stroke-dasharray:none;stroke-dashoffset:0;stroke-opacity:1"
       d="m 349.46071,332.66976 c -32.7585,13.67116 -54.88617,28.67095 -72.68532,14.25602 -7.11374,-5.76118 -3.04101,-19.05273 -3.04101,-19.05273 1.71848,-2.24012 -11.39454,5.64648 -11.39454,5.64648 0,0 -4.41287,48.46691 7.59571,62.10742 0.87286,0.99149 1.71107,1.89329 2.53125,2.75391 7.63527,11.6217 21.38919,19.59295 38.2832,22.1875 l 3.18164,15.66602 -0.71484,81.42773 c 0,0 -9.28461,-4.28544 -13.57032,2.85742 -4.28571,7.14286 18.57032,2.14258 18.57032,2.14258 l 3.57226,-85 c 0,0 0.70826,-7.4589 0.47266,-16.19922 5.90792,0.0717 11.9356,-0.47863 17.92773,-1.63672 11.00378,-2.18825 21.61725,-6.37494 30.93555,-12.20312 0.10326,0.15137 0.19759,0.30125 0.30273,0.45312 12.85714,18.57143 22.0232,16.30459 27.85966,30.92352 8.4626,21.19677 3.57226,60 3.57226,60 -14.519,-2.26855 -13.23551,7.52067 -13.23551,7.52067 l 18.23551,-1.09098 0.71289,-72.85742 c 0,0 -13.61367,-29.38935 -7.14481,-60.92352 0.41349,-2.01563 0.66381,-3.86586 0.79883,-5.59375 0.72983,-3.98812 0.89883,-7.95258 0.50391,-11.82031 -0.41049,-3.51174 -1.28605,-6.9204 -2.61328,-10.17383 11.64831,0.75772 25.79316,5.43996 27.25976,35.00586 0.77082,15.53925 0.98287,71.24876 39.75977,86.04297 34.68923,13.23462 71.90659,-2.05582 87.6289,-47.68555 19.20286,-55.73094 51.18165,-36.7168 51.18165,-36.7168 0,0 -7.66306,-24.23887 -39.2168,-24.54297 -43.02788,-0.41469 -50.54012,53.02816 -86.43164,52.64453 -29.55739,-0.31592 -36.09979,-28.7481 -36.88867,-33.47265 -5.30879,-31.79401 -29.45365,-43.79859 -44.97852,-39.01758 -0.8045,0.24775 -1.61476,0.001 -2.36328,0.0293 -7.01667,-9.09431 -24.32875,-12.97558 -46.60765,-3.6779 z"
       id="path10159"
       inkscape:connector-curvature="0"
       sodipodi:nodetypes="ssscsccccscccccssccccscccssscsssscs" />
    <path
       style="fill:#ffffff;fill-opacity:1;fill-rule:evenodd;stroke:#000000;stroke-width:0.78768367px;stroke-linecap:butt;stroke-linejoin:miter;stroke-opacity:1"
       d="m 259.70012,332.83402 c 0,0 -4.40697,20.77285 -3.88561,38.50188 0.52138,17.72905 1.00354,21.87651 1.00354,21.87651 l 1.16787,-2.64697 1.20162,9.04825 0.4604,-3.39782 2.1333,6.02525 -0.0131,-4.52721 4.01736,7.14725 -1.19401,-6.40739 6.60779,8.64285 -1.19073,-5.27559 6.3716,8.26682 -1.42474,-4.89712 6.83852,7.13257 -0.95128,-3.76775 6.83636,6.37804 7.06165,2.98143 -8.49184,-9.76488 3.29572,1.49194 -7.33375,-15.80723 4.94903,4.12423 -7.08779,-12.0358 3.76375,0.73496 -4.48537,-6.39028 2.35098,-0.0122 -3.54062,-4.8861 c 0,0 -10.81016,1.56532 -11.40557,-41.81777 z"
       id="path11882"
       inkscape:connector-curvature="0"
       sodipodi:nodetypes="csccccccccccccccccccccccccccc" />
    <path
       style="fill:#ffffff;fill-rule:evenodd;stroke:#000000;stroke-width:1;stroke-linecap:butt;stroke-linejoin:miter;stroke-miterlimit:4;stroke-dasharray:none;stroke-opacity:1"
       d="m 291.93738,288.6317 21.68049,13.55443 -20.37743,-4.41208 9.43028,14.69929 -9.26853,-4.32734 3.45138,10.02943 -4.73889,-3.55755 -2.21958,10.48923 -1.50046,-13.82617 z"
       id="path11884"
       inkscape:connector-curvature="0" />
    <path
       style="fill:#ff9955;fill-opacity:1;stroke:#000000;stroke-width:0.80167139;stroke-linejoin:round;stroke-miterlimit:4;stroke-dasharray:none;stroke-dashoffset:0;stroke-opacity:1"
       d="m 316.88282,220.04186 c -4.91365,-0.0796 -10.15885,0.22458 -15.01881,1.27453 -15.55189,3.35984 -21.12686,26.04963 -21.12686,26.04963 l -4.37005,11.45982 a 42.374058,43.23299 0 0 0 -23.61329,-7.40136 42.374058,43.23299 0 0 0 -10.94783,1.48591 l 0.15659,-0.56054 c 0,0 5.37854,-12.91275 -0.94886,-19.80693 -6.32739,-6.89419 -17.28134,-11.40189 -17.28134,-11.40189 0,0 -7.70918,8.66925 -2.7166,17.9875 3.53478,6.59742 7.37639,13.90319 9.8283,18.5731 a 42.374058,43.23299 0 0 0 -20.46454,36.95516 42.374058,43.23299 0 0 0 0.0908,2.62892 c -0.98594,1.25747 -1.97104,2.56571 -2.95459,3.95669 -23.02356,32.56093 -92.76371,33.7845 -92.76371,33.7845 l -5.1545,6.29907 c 0,0 10.3081,2.86289 61.27149,5.726 39.9275,2.24312 85.82479,-2.19321 104.38325,-15.78447 a 42.374058,43.23299 0 0 0 13.52664,-13.9494 l 4.03498,3.77976 1.06627,-10.56265 6.71088,4.97287 -4.25106,-8.71348 7.42329,2.22495 -6.03758,-8.28446 9.24897,2.35961 -6.98958,-8.91546 13.81318,2.69468 -11.47392,-8.12476 13.69417,1.00679 -22.23072,-6.11431 -0.0564,0.12527 a 42.374058,43.23299 0 0 0 -7.9713,-16.12738 c 4.70653,-2.36204 22.64449,-11.35773 36.84713,-18.32884 16.15423,-7.92901 14.29543,-27.0658 14.29543,-27.0658 0,0 -9.20982,-2.02788 -20.01987,-2.20303 z"
       id="path10106"
       inkscape:connector-curvature="0" />
    <path
       style="fill:none;fill-rule:evenodd;stroke:#000000;stroke-width:0.80167139;stroke-linecap:butt;stroke-linejoin:round;stroke-miterlimit:4;stroke-dasharray:none;stroke-dashoffset:0;stroke-opacity:1;marker-start:url(#marker9826);marker-mid:url(#Arrow1Mend);marker-end:url(#Arrow1Sstart)"
       d="m 251.60812,325.86475 c 0,0 -48.6729,31.49422 -147.73658,13.74293"
       id="path3352"
       inkscape:connector-curvature="0"
       sodipodi:nodetypes="cc" />
    <circle
       style="fill:#000000;stroke-width:1;stroke-miterlimit:4;stroke-dasharray:none;stroke-dashoffset:0"
       id="path5632"
       cx="255.59209"
       cy="278.44043"
       r="10.527534" />
    <ellipse
       style="fill:#ffffff;stroke-width:1;stroke-miterlimit:4;stroke-dasharray:none;stroke-dashoffset:0"
       id="path5634"
       cx="255.45479"
       cy="281.93094"
       rx="8.9079142"
       ry="6.2760301" />
    <ellipse
       style="fill:#000000;stroke-width:1;stroke-miterlimit:4;stroke-dasharray:none;stroke-dashoffset:0"
       id="path5632-4"
       cx="251.16832"
       cy="232.33549"
       inkscape:transform-center-x="-0.30872496"
       inkscape:transform-center-y="1.2779804"
       rx="19.435448"
       ry="10.93244"
       transform="matrix(0.86296427,0.50526495,-0.50526495,0.86296427,0,0)" />
    <circle
       style="fill:#000000;stroke-width:1;stroke-miterlimit:4;stroke-dasharray:none;stroke-dashoffset:0"
       id="path5632-7"
       cx="215.10161"
       cy="276.8208"
       r="10.527534" />
    <ellipse
       style="fill:#ffffff;stroke-width:1;stroke-miterlimit:4;stroke-dasharray:none;stroke-dashoffset:0"
       id="path5634-3"
       cx="214.96426"
       cy="279.90643"
       rx="8.9079142"
       ry="6.0735779"
       inkscape:transform-center-x="1.214713"
       inkscape:transform-center-y="1.2147299" />
    <ellipse
       style="fill:#000000;stroke-width:1;stroke-miterlimit:4;stroke-dasharray:none;stroke-dashoffset:0"
       id="path5634-3-3"
       cx="214.08934"
       cy="276.94733"
       rx="4.4539571"
       ry="4.1755848" />
    <ellipse
       style="fill:#000000;stroke-width:1;stroke-miterlimit:4;stroke-dasharray:none;stroke-dashoffset:0"
       id="path5634-3-3-1"
       cx="252.96024"
       cy="278.84534"
       rx="4.4539571"
       ry="4.1755848" />
    <ellipse
       style="fill:#ffffff;stroke-width:1;stroke-miterlimit:4;stroke-dasharray:none;stroke-dashoffset:0"
       id="path5634-3-3-2"
       cx="212.67218"
       cy="275.78323"
       rx="1.6196208"
       ry="1.5183945" />
    <ellipse
       style="fill:#ffffff;stroke-width:1;stroke-miterlimit:4;stroke-dasharray:none;stroke-dashoffset:0"
       id="path5634-3-3-2-2"
       cx="251.13818"
       cy="278.03549"
       rx="1.6196208"
       ry="1.5183945" />
    <path
       style="fill:#ffb380;fill-opacity:1;fill-rule:evenodd;stroke:none;stroke-width:1px;stroke-linecap:butt;stroke-linejoin:miter;stroke-opacity:1"
       d="m 280.67165,249.86272 c 0,0 4.88241,-19.87158 18.50249,-22.81406 13.62009,-2.94247 30.68586,0.81353 30.68586,0.81353 0,0 1.6274,16.75981 -12.52022,23.7039 -14.14761,6.94411 -35.24558,17.54314 -35.24558,17.54314 l -6.57152,-5.74858 z"
       id="path10108-3"
       inkscape:connector-curvature="0"
       sodipodi:nodetypes="cscsccc" />
    <path
       style="fill:#ffccaa;fill-rule:evenodd;stroke:none;stroke-width:1px;stroke-linecap:butt;stroke-linejoin:miter;stroke-opacity:1"
       d="m 276.13063,264.20698 c 0,0 4.24846,-16.46274 21.13636,-17.38837 16.88791,-0.92563 -15.47184,22.13834 -15.47184,22.13834 z"
       id="path10125"
       inkscape:connector-curvature="0" />
  </g>
</svg>
