<?xml version="1.0" encoding="UTF-8" standalone="no"?>
<!-- Created with Inkscape (http://www.inkscape.org/) -->

<svg
   xmlns:dc="http://purl.org/dc/elements/1.1/"
   xmlns:cc="http://creativecommons.org/ns#"
   xmlns:rdf="http://www.w3.org/1999/02/22-rdf-syntax-ns#"
   xmlns:svg="http://www.w3.org/2000/svg"
   xmlns="http://www.w3.org/2000/svg"
   xmlns:sodipodi="http://sodipodi.sourceforge.net/DTD/sodipodi-0.dtd"
   xmlns:inkscape="http://www.inkscape.org/namespaces/inkscape"
   width="210mm"
   height="297mm"
   viewBox="0 0 744.09448819 1052.3622047"
   id="svg2"
   version="1.1"
   inkscape:version="0.91 r13725"
   sodipodi:docname="FOX.svg">
  <defs
     id="defs4">
    <marker
       inkscape:stockid="Arrow2Lend"
       orient="auto"
       refY="0.0"
       refX="0.0"
       id="marker9826"
       style="overflow:visible;"
       inkscape:isstock="true">
      <path
         id="path9828"
         style="fill-rule:evenodd;stroke-width:0.625;stroke-linejoin:round;stroke:#000000;stroke-opacity:1;fill:#000000;fill-opacity:1"
         d="M 8.7185878,4.0337352 L -2.2072895,0.016013256 L 8.7185884,-4.0017078 C 6.9730900,-1.6296469 6.9831476,1.6157441 8.7185878,4.0337352 z "
         transform="scale(1.1) rotate(180) translate(1,0)" />
    </marker>
    <marker
       inkscape:stockid="Arrow1Sstart"
       orient="auto"
       refY="0.0"
       refX="0.0"
       id="Arrow1Sstart"
       style="overflow:visible"
       inkscape:isstock="true">
      <path
         id="path4170"
         d="M 0.0,0.0 L 5.0,-5.0 L -12.5,0.0 L 5.0,5.0 L 0.0,0.0 z "
         style="fill-rule:evenodd;stroke:#000000;stroke-width:1pt;stroke-opacity:1;fill:#ffffff;fill-opacity:1"
         transform="scale(0.2) translate(6,0)" />
    </marker>
    <marker
       inkscape:stockid="Arrow2Lstart"
       orient="auto"
       refY="0.0"
       refX="0.0"
       id="Arrow2Lstart"
       style="overflow:visible"
       inkscape:isstock="true">
      <path
         id="path4176"
         style="fill-rule:evenodd;stroke-width:0.625;stroke-linejoin:round;stroke:#000000;stroke-opacity:1;fill:#000000;fill-opacity:1"
         d="M 8.7185878,4.0337352 L -2.2072895,0.016013256 L 8.7185884,-4.0017078 C 6.9730900,-1.6296469 6.9831476,1.6157441 8.7185878,4.0337352 z "
         transform="scale(1.1) translate(1,0)" />
    </marker>
    <marker
       inkscape:stockid="Club"
       orient="auto"
       refY="0.0"
       refX="0.0"
       id="Club"
       style="overflow:visible"
       inkscape:isstock="true">
      <path
         id="path4387"
         d="M -1.5971367,-7.0977635 C -3.4863874,-7.0977635 -5.0235187,-5.5606321 -5.0235187,-3.6713813 C -5.0235187,-3.0147015 -4.7851656,-2.4444556 -4.4641095,-1.9232271 C -4.5028609,-1.8911157 -4.5437814,-1.8647646 -4.5806531,-1.8299921 C -5.2030765,-2.6849849 -6.1700514,-3.2751330 -7.3077730,-3.2751330 C -9.1970245,-3.2751331 -10.734155,-1.7380016 -10.734155,0.15124914 C -10.734155,2.0404999 -9.1970245,3.5776313 -7.3077730,3.5776313 C -6.3143268,3.5776313 -5.4391540,3.1355702 -4.8137404,2.4588126 C -4.9384274,2.8137041 -5.0235187,3.1803000 -5.0235187,3.5776313 C -5.0235187,5.4668819 -3.4863874,7.0040135 -1.5971367,7.0040135 C 0.29211394,7.0040135 1.8292454,5.4668819 1.8292454,3.5776313 C 1.8292454,2.7842354 1.5136868,2.0838028 1.0600576,1.5031550 C 2.4152718,1.7663868 3.7718375,2.2973711 4.7661444,3.8340272 C 4.0279463,3.0958289 3.5540908,1.7534117 3.5540908,-0.058529361 L 2.9247554,-0.10514681 L 3.5074733,-0.12845553 C 3.5074733,-1.9403966 3.9580199,-3.2828138 4.6962183,-4.0210121 C 3.7371277,-2.5387813 2.4390549,-1.9946496 1.1299838,-1.7134486 C 1.5341802,-2.2753578 1.8292454,-2.9268556 1.8292454,-3.6713813 C 1.8292454,-5.5606319 0.29211394,-7.0977635 -1.5971367,-7.0977635 z "
         style="fill-rule:evenodd;stroke:#000000;stroke-width:0.74587913pt;stroke-opacity:1;fill:#000000;fill-opacity:1"
         transform="scale(0.6)" />
    </marker>
    <marker
       inkscape:stockid="DotL"
       orient="auto"
       refY="0.0"
       refX="0.0"
       id="DotL"
       style="overflow:visible"
       inkscape:isstock="true">
      <path
         id="path4219"
         d="M -2.5,-1.0 C -2.5,1.7600000 -4.7400000,4.0 -7.5,4.0 C -10.260000,4.0 -12.5,1.7600000 -12.5,-1.0 C -12.5,-3.7600000 -10.260000,-6.0 -7.5,-6.0 C -4.7400000,-6.0 -2.5,-3.7600000 -2.5,-1.0 z "
         style="fill-rule:evenodd;stroke:#000000;stroke-width:1pt;stroke-opacity:1;fill:#000000;fill-opacity:1"
         transform="scale(0.8) translate(7.4, 1)" />
    </marker>
    <marker
       inkscape:stockid="SemiCircleIn"
       orient="auto"
       refY="0.0"
       refX="0.0"
       id="SemiCircleIn"
       style="overflow:visible"
       inkscape:isstock="true">
      <path
         id="path4336"
         d="M -0.37450702,-0.045692580 C -0.37450702,2.7143074 1.8654930,4.9543074 4.6254930,4.9543074 L 4.6254930,-5.0456926 C 1.8654930,-5.0456926 -0.37450702,-2.8056926 -0.37450702,-0.045692580 z "
         style="fill-rule:evenodd;stroke:#000000;stroke-width:1pt;stroke-opacity:1;fill:#000000;fill-opacity:1"
         transform="scale(0.6)" />
    </marker>
    <marker
       inkscape:stockid="Arrow1Mend"
       orient="auto"
       refY="0.0"
       refX="0.0"
       id="Arrow1Mend"
       style="overflow:visible;"
       inkscape:isstock="true">
      <path
         id="path4167"
         d="M 0.0,0.0 L 5.0,-5.0 L -12.5,0.0 L 5.0,5.0 L 0.0,0.0 z "
         style="fill-rule:evenodd;stroke:#000000;stroke-width:1pt;stroke-opacity:1;fill:#ffffff;fill-opacity:1"
         transform="scale(0.4) rotate(180) translate(10,0)" />
    </marker>
    <marker
       inkscape:stockid="Arrow2Lend"
       orient="auto"
       refY="0.0"
       refX="0.0"
       id="Arrow2Lend"
       style="overflow:visible;"
       inkscape:isstock="true">
      <path
         id="path4179"
         style="fill-rule:evenodd;stroke-width:0.625;stroke-linejoin:round;stroke:#eb781e;stroke-opacity:1;fill:#ffffff;fill-opacity:1"
         d="M 8.7185878,4.0337352 L -2.2072895,0.016013256 L 8.7185884,-4.0017078 C 6.9730900,-1.6296469 6.9831476,1.6157441 8.7185878,4.0337352 z "
         transform="scale(1.1) rotate(180) translate(1,0)" />
    </marker>
    <marker
       inkscape:stockid="DiamondLend"
       orient="auto"
       refY="0.0"
       refX="0.0"
       id="DiamondLend"
       style="overflow:visible"
       inkscape:isstock="true">
      <path
         id="path4255"
         d="M 0,-7.0710768 L -7.0710894,0 L 0,7.0710589 L 7.0710462,0 L 0,-7.0710768 z "
         style="fill-rule:evenodd;stroke:#000000;stroke-width:1pt;stroke-opacity:1;fill:#000000;fill-opacity:1"
         transform="scale(0.8) translate(-7,0)" />
    </marker>
    <marker
       inkscape:stockid="EmptyTriangleInL"
       orient="auto"
       refY="0.0"
       refX="0.0"
       id="EmptyTriangleInL"
       style="overflow:visible"
       inkscape:isstock="true">
      <path
         id="path4309"
         d="M 5.77,0.0 L -2.88,5.0 L -2.88,-5.0 L 5.77,0.0 z "
         style="fill-rule:evenodd;fill:#ffffff;stroke:#000000;stroke-width:1pt;stroke-opacity:1"
         transform="scale(-0.8) translate(-6,0)" />
    </marker>
    <marker
       inkscape:stockid="Tail"
       orient="auto"
       refY="0.0"
       refX="0.0"
       id="Tail"
       style="overflow:visible"
       inkscape:isstock="true">
      <g
         id="g4194"
         transform="scale(-1.2)"
         style="stroke:#000000;stroke-opacity:1;fill:#000000;fill-opacity:1">
        <path
           id="path4196"
           d="M -3.8048674,-3.9585227 L 0.54352094,0"
           style="fill:#000000;fill-rule:evenodd;stroke:#000000;stroke-width:0.8;stroke-linecap:round;stroke-opacity:1;fill-opacity:1" />
        <path
           id="path4198"
           d="M -1.2866832,-3.9585227 L 3.0617053,0"
           style="fill:#000000;fill-rule:evenodd;stroke:#000000;stroke-width:0.8;stroke-linecap:round;stroke-opacity:1;fill-opacity:1" />
        <path
           id="path4200"
           d="M 1.3053582,-3.9585227 L 5.6537466,0"
           style="fill:#000000;fill-rule:evenodd;stroke:#000000;stroke-width:0.8;stroke-linecap:round;stroke-opacity:1;fill-opacity:1" />
        <path
           id="path4202"
           d="M -3.8048674,4.1775838 L 0.54352094,0.21974226"
           style="fill:#000000;fill-rule:evenodd;stroke:#000000;stroke-width:0.8;stroke-linecap:round;stroke-opacity:1;fill-opacity:1" />
        <path
           id="path4204"
           d="M -1.2866832,4.1775838 L 3.0617053,0.21974226"
           style="fill:#000000;fill-rule:evenodd;stroke:#000000;stroke-width:0.8;stroke-linecap:round;stroke-opacity:1;fill-opacity:1" />
        <path
           id="path4206"
           d="M 1.3053582,4.1775838 L 5.6537466,0.21974226"
           style="fill:#000000;fill-rule:evenodd;stroke:#000000;stroke-width:0.8;stroke-linecap:round;stroke-opacity:1;fill-opacity:1" />
      </g>
    </marker>
    <marker
       inkscape:stockid="Arrow2Mend"
       orient="auto"
       refY="0.0"
       refX="0.0"
       id="Arrow2Mend"
       style="overflow:visible;"
       inkscape:isstock="true">
      <path
         id="path4185"
         style="fill-rule:evenodd;stroke-width:0.625;stroke-linejoin:round;stroke:#000000;stroke-opacity:1;fill:#000000;fill-opacity:1"
         d="M 8.7185878,4.0337352 L -2.2072895,0.016013256 L 8.7185884,-4.0017078 C 6.9730900,-1.6296469 6.9831476,1.6157441 8.7185878,4.0337352 z "
         transform="scale(0.6) rotate(180) translate(0,0)" />
    </marker>
    <marker
       inkscape:stockid="Arrow1Lend"
       orient="auto"
       refY="0.0"
       refX="0.0"
       id="marker4460"
       style="overflow:visible;"
       inkscape:isstock="true">
      <path
         id="path4462"
         d="M 0.0,0.0 L 5.0,-5.0 L -12.5,0.0 L 5.0,5.0 L 0.0,0.0 z "
         style="fill-rule:evenodd;stroke:#000000;stroke-width:1pt;stroke-opacity:1;fill:#000000;fill-opacity:1"
         transform="scale(0.8) rotate(180) translate(12.5,0)" />
    </marker>
    <marker
       inkscape:stockid="Arrow1Lstart"
       orient="auto"
       refY="0.0"
       refX="0.0"
       id="Arrow1Lstart"
       style="overflow:visible"
       inkscape:isstock="true">
      <path
         id="path4158"
         d="M 0.0,0.0 L 5.0,-5.0 L -12.5,0.0 L 5.0,5.0 L 0.0,0.0 z "
         style="fill-rule:evenodd;stroke:#000000;stroke-width:1pt;stroke-opacity:1;fill:#000000;fill-opacity:1"
         transform="scale(0.8) translate(12.5,0)" />
    </marker>
    <marker
       inkscape:stockid="Arrow1Lend"
       orient="auto"
       refY="0.0"
       refX="0.0"
       id="Arrow1Lend"
       style="overflow:visible;"
       inkscape:isstock="true">
      <path
         id="path4161"
         d="M 0.0,0.0 L 5.0,-5.0 L -12.5,0.0 L 5.0,5.0 L 0.0,0.0 z "
         style="fill-rule:evenodd;stroke:#000000;stroke-width:1pt;stroke-opacity:1;fill:#000000;fill-opacity:1"
         transform="scale(0.8) rotate(180) translate(12.5,0)" />
    </marker>
  </defs>
  <sodipodi:namedview
     id="base"
     pagecolor="#ffffff"
     bordercolor="#666666"
     borderopacity="1.0"
     inkscape:pageopacity="0.0"
     inkscape:pageshadow="2"
     inkscape:zoom="1.8701892"
     inkscape:cx="400.32623"
     inkscape:cy="690.54891"
     inkscape:document-units="px"
     inkscape:current-layer="layer1"
     showgrid="false"
     inkscape:window-width="1920"
     inkscape:window-height="1017"
     inkscape:window-x="-8"
     inkscape:window-y="-8"
     inkscape:window-maximized="1" />
  <metadata
     id="metadata7">
    <rdf:RDF>
      <cc:Work
         rdf:about="">
        <dc:format>image/svg+xml</dc:format>
        <dc:type
           rdf:resource="http://purl.org/dc/dcmitype/StillImage" />
        <dc:title></dc:title>
      </cc:Work>
    </rdf:RDF>
  </metadata>
  <g
     inkscape:label="Layer 1"
     inkscape:groupmode="layer"
     id="layer1">
    <ellipse
       style="fill:#ff9955;fill-opacity:1;stroke:none;stroke-width:1;stroke-linejoin:round;stroke-miterlimit:4;stroke-dasharray:none;stroke-dashoffset:0;stroke-opacity:1"
       id="path10106"
       cx="265.71429"
       cy="278.43362"
       rx="52.857143"
       ry="53.92857" />
    <path
       style="fill:#ff9955;fill-rule:evenodd;stroke:none;stroke-width:1px;stroke-linecap:butt;stroke-linejoin:miter;stroke-opacity:1"
       d="m 93.571424,328.79077 c 0,0 86.994836,-1.52655 115.714286,-42.14285 46.77704,-66.15411 96.42857,-9.28571 95,20.71429 -1.42857,30 -77.14286,40 -140.71428,36.42857 C 100,340.21935 87.142854,336.64792 87.142854,336.64792 Z"
       id="path5735"
       inkscape:connector-curvature="0"
       sodipodi:nodetypes="cssscc" />
    <path
       style="fill:none;fill-rule:evenodd;stroke:#000000;stroke-width:1;stroke-linecap:butt;stroke-linejoin:round;stroke-miterlimit:4;stroke-dasharray:none;stroke-dashoffset:0;stroke-opacity:1;marker-start:url(#marker9826);marker-mid:url(#Arrow1Mend);marker-end:url(#Arrow1Sstart)"
       d="m 264.28571,317.3622 c 0,0 -60.71428,39.28571 -184.285706,17.14285"
       id="path3352"
       inkscape:connector-curvature="0"
       sodipodi:nodetypes="cc" />
    <circle
       style="fill:#000000;stroke-width:1;stroke-miterlimit:4;stroke-dasharray:none;stroke-dashoffset:0"
       id="path5632"
       cx="269.25531"
       cy="258.20538"
       r="13.131983" />
    <ellipse
       style="fill:#ffffff;stroke-width:1;stroke-miterlimit:4;stroke-dasharray:none;stroke-dashoffset:0"
       id="path5634"
       cx="269.08405"
       cy="262.55945"
       rx="11.111678"
       ry="7.8286819" />
    <ellipse
       style="fill:#000000;stroke-width:1;stroke-miterlimit:4;stroke-dasharray:none;stroke-dashoffset:0"
       id="path5632-4"
       cx="225.50084"
       cy="237.95227"
       inkscape:transform-center-x="-0.38511063"
       inkscape:transform-center-y="1.5941428"
       rx="24.24366"
       ry="13.637059"
       transform="matrix(0.86296427,0.50526495,-0.50526495,0.86296427,0,0)" />
    <circle
       style="fill:#000000;stroke-width:1;stroke-miterlimit:4;stroke-dasharray:none;stroke-dashoffset:0"
       id="path5632-7"
       cx="218.74773"
       cy="256.18509"
       r="13.131983" />
    <ellipse
       style="fill:#ffffff;stroke-width:1;stroke-miterlimit:4;stroke-dasharray:none;stroke-dashoffset:0"
       id="path5634-3"
       cx="218.5764"
       cy="260.03406"
       rx="11.111678"
       ry="7.5761442"
       inkscape:transform-center-x="1.5152288"
       inkscape:transform-center-y="1.5152288" />
    <ellipse
       style="fill:#000000;stroke-width:1;stroke-miterlimit:4;stroke-dasharray:none;stroke-dashoffset:0"
       id="path5634-3-3"
       cx="217.48503"
       cy="256.3429"
       rx="5.5558391"
       ry="5.2085991" />
    <ellipse
       style="fill:#000000;stroke-width:1;stroke-miterlimit:4;stroke-dasharray:none;stroke-dashoffset:0"
       id="path5634-3-3-1"
       cx="265.97235"
       cy="258.71048"
       rx="5.5558391"
       ry="5.2085991" />
    <ellipse
       style="fill:#ffffff;stroke-width:1;stroke-miterlimit:4;stroke-dasharray:none;stroke-dashoffset:0"
       id="path5634-3-3-2"
       cx="215.71727"
       cy="254.89082"
       rx="2.0203052"
       ry="1.8940361" />
    <ellipse
       style="fill:#ffffff;stroke-width:1;stroke-miterlimit:4;stroke-dasharray:none;stroke-dashoffset:0"
       id="path5634-3-3-2-2"
       cx="263.69952"
       cy="257.70029"
       rx="2.0203052"
       ry="1.8940361" />
    <path
       style="fill:#ff9955;fill-opacity:1;fill-rule:evenodd;stroke:none;stroke-width:1px;stroke-linecap:butt;stroke-linejoin:miter;stroke-opacity:1"
       d="m 300.62203,219.44277 c 0,0 6.95411,-28.30339 26.35344,-32.49443 19.39931,-4.19102 43.70639,1.15869 43.70639,1.15869 0,0 2.31791,23.8713 -17.83278,33.7619 -20.15068,9.8906 -50.20085,24.98697 -50.20085,24.98697 l -9.35993,-8.1878 z"
       id="path10108"
       inkscape:connector-curvature="0"
       sodipodi:nodetypes="cscsccc" />
    <path
       style="fill:#ffb380;fill-opacity:1;fill-rule:evenodd;stroke:none;stroke-width:1px;stroke-linecap:butt;stroke-linejoin:miter;stroke-opacity:1"
       d="m 300.53939,222.55774 c 0,0 6.09029,-24.78769 23.07989,-28.45812 16.98962,-3.67043 38.27735,1.01479 38.27735,1.01479 0,0 2.03002,20.90608 -15.61764,29.5681 -17.64764,8.66204 -43.96512,21.8832 -43.96512,21.8832 l -8.19728,-7.17074 z"
       id="path10108-3"
       inkscape:connector-curvature="0"
       sodipodi:nodetypes="cscsccc" />
    <path
       style="fill:#ffccaa;fill-rule:evenodd;stroke:none;stroke-width:1px;stroke-linecap:butt;stroke-linejoin:miter;stroke-opacity:1"
       d="m 294.87495,240.45068 c 0,0 5.2995,-20.53553 26.36536,-21.69015 21.06588,-1.15463 -19.29948,27.61523 -19.29948,27.61523 z"
       id="path10125"
       inkscape:connector-curvature="0" />
    <path
       style="fill:#ff9955;fill-opacity:1;fill-rule:evenodd;stroke:none;stroke-width:1px;stroke-linecap:butt;stroke-linejoin:miter;stroke-opacity:1"
       d="m 252.253,225.6593 c 0,0 6.70939,-16.10608 -1.18337,-24.70584 -7.89274,-8.59977 -21.55524,-14.22385 -21.55524,-14.22385 0,0 -9.6173,10.81546 -3.38959,22.43899 6.2277,11.62354 15.39148,29.12592 15.39148,29.12592 l 7.44194,-0.81198 z"
       id="path10108-7"
       inkscape:connector-curvature="0"
       sodipodi:nodetypes="cscsccc" />
    <path
       style="fill:#ff9955;fill-opacity:1;fill-rule:evenodd;stroke:none;stroke-width:1px;stroke-linecap:butt;stroke-linejoin:miter;stroke-opacity:1"
       d="m 316.89988,264.6937 27.73036,7.6261 -17.08217,-1.25454 14.31399,10.1342 -17.23176,-3.36158 8.71966,11.12073 -11.53768,-2.94344 7.53096,10.33477 -9.26007,-2.77616 5.30323,10.86985 -8.3706,-6.20429 -1.33014,13.17742 -7.28166,-6.823 -8.26276,11.27093 -0.84772,-11.94002 z"
       id="path10142"
       inkscape:connector-curvature="0" />
    <ellipse
       style="fill:#ff9955;fill-opacity:1;stroke:none;stroke-width:1;stroke-linejoin:round;stroke-miterlimit:4;stroke-dasharray:none;stroke-dashoffset:0;stroke-opacity:1"
       id="path10159"
       cx="293.50674"
       cy="427.14975"
       rx="69.570534"
       ry="52.418255"
       transform="matrix(0.98103695,-0.19382079,0.10895023,0.99404721,0,0)" />
    <path
       style="fill:#ff9955;fill-opacity:1;fill-rule:evenodd;stroke:none;stroke-width:1px;stroke-linecap:butt;stroke-linejoin:miter;stroke-opacity:1"
       d="m 262.33898,333.51894 c 0,0 -4.41107,48.46789 7.59751,62.1084 38.93726,44.22871 24.69193,-44.22871 24.69193,-44.22871 -4.64028,-10.23735 -16.14506,26.78592 -20.89318,-23.5259 -0.26527,-2.81086 -11.39626,5.64621 -11.39626,5.64621 z"
       id="path10161"
       inkscape:connector-curvature="0"
       sodipodi:nodetypes="csssc" />
    <path
       style="fill:#ff9955;fill-rule:evenodd;stroke:none;stroke-width:1px;stroke-linecap:butt;stroke-linejoin:miter;stroke-opacity:1;fill-opacity:1"
       d="m 270,389.50506 9.28571,45.71429 -0.71428,81.42857 c 0,0 -9.28572,-4.28572 -13.57143,2.85714 -4.28571,7.14286 18.57143,2.14286 18.57143,2.14286 l 3.57143,-85 c 0,0 3.57143,-37.14286 -7.85715,-42.85714 C 267.85714,388.07649 270,389.50506 270,389.50506 Z"
       id="path11711"
       inkscape:connector-curvature="0" />
    <path
       style="fill:#ff9955;fill-opacity:1;fill-rule:evenodd;stroke:none;stroke-width:1px;stroke-linecap:butt;stroke-linejoin:miter;stroke-opacity:1"
       d="m 304.64633,390.51945 9.28571,45.71429 -0.71428,81.42857 c 0,0 -9.28572,-4.28572 -13.57143,2.85714 -4.28571,7.14286 18.57143,2.14286 18.57143,2.14286 l 3.57143,-85 c 0,0 3.57143,-37.14286 -7.85715,-42.85714 -11.42857,-5.71429 -9.28571,-4.28572 -9.28571,-4.28572 z"
       id="path11711-5"
       inkscape:connector-curvature="0" />
    <path
       style="fill:none;fill-rule:evenodd;stroke:#000000;stroke-width:1px;stroke-linecap:butt;stroke-linejoin:miter;stroke-opacity:1"
       d="m 400,345.93363 c 0,0 6.42857,-2.14285 12.85714,4.28572 6.42857,6.42857 7.85715,19.28571 7.85715,19.28571 0,0 -2.85715,45.71429 7.14285,66.42857 10,20.71429 5.71429,21.42857 5.71429,21.42857 l 3.57143,-7.14285 2.85714,15 2.14286,-6.42857 c 0,0 19.28571,22.85714 50,18.57142 30.71428,-4.28571 45.71428,-16.42857 58.57143,-31.42857 12.85714,-15 17.14285,-15.71428 17.14285,-15.71428 l -10.71428,2.85714 11.42857,-7.14286 -7.14286,1.42857 6.42857,-5 -4.28571,0 2.85714,-3.57142 -0.71428,-5 c 0,0 10,-37.14286 38.57142,-34.28572 -15,-16.42857 -33.57142,-11.42857 -33.57142,-11.42857 l -54.28572,62.85714 -55,7.85715 L 435.71429,383.07649 425,350.21935 l -16.42857,-9.28572 -17.14286,0.71429 z"
       id="path11751"
       inkscape:connector-curvature="0"
       sodipodi:nodetypes="cscsccccssccccccccccccccccc" />
    <path
       style="fill:#ff9955;fill-opacity:1;fill-rule:evenodd;stroke:none;stroke-width:1px;stroke-linecap:butt;stroke-linejoin:miter;stroke-opacity:1"
       d="m 383.57143,344.50507 c 0,0 23.68041,-1.24415 17.85715,27.14286 -6.46886,31.53417 19.99999,57.14285 19.99999,57.14285 l -0.71428,72.85715 -17.85714,0.71428 c 0,0 2.11907,-7.14283 12.85714,-7.14285 0,0 4.89117,-38.80324 -3.57143,-60.00001 -5.83646,-14.61893 -27.85715,-8.57142 -40.71429,-27.14285 -28.40236,-41.02562 12.14286,-63.57143 12.14286,-63.57143 z"
       id="path11728"
       inkscape:connector-curvature="0"
       sodipodi:nodetypes="cscccsssc" />
    <path
       style="fill:#ff9955;fill-opacity:1;fill-rule:evenodd;stroke:none;stroke-width:1px;stroke-linecap:butt;stroke-linejoin:miter;stroke-opacity:1"
       d="m 344.16878,372.02552 c 0,0 33.68041,-18.38701 30.00001,-1.42857 -6.82729,31.45851 19.99999,57.14285 19.99999,57.14285 l -0.71428,72.85714 -17.85714,0.71428 c 0,0 2.11907,-7.14283 12.85714,-7.14285 0,0 4.89117,-38.80323 -3.57143,-60 -5.83646,-14.61893 -27.85715,-8.57142 -40.71429,-27.14285 -28.40236,-41.02562 0,-35 0,-35 z"
       id="path11728-7"
       inkscape:connector-curvature="0"
       sodipodi:nodetypes="cscccsssc" />
    <path
       style="fill:#ff9955;fill-opacity:1;fill-rule:evenodd;stroke:none;stroke-width:1px;stroke-linecap:butt;stroke-linejoin:miter;stroke-opacity:1"
       d="m 480.29891,408.80943 c 35.89152,0.38363 43.40335,-53.06021 86.43123,-52.64552 31.55374,0.3041 39.21714,24.54252 39.21714,24.54252 0,0 -31.97805,-19.01394 -51.18089,36.717 -15.72232,45.62973 -52.94079,60.91998 -87.63002,47.68535 -38.7769,-14.79419 -38.98871,-70.50344 -39.75953,-86.04269 -1.60059,-32.26693 -18.31016,-34.91218 -30.38504,-35.1445 -13.69844,-0.26355 -14.08439,-7.9011 1.44047,-7.60239 15.52487,0.29869 39.66958,7.2219 44.97837,39.01591 0.78888,4.72455 7.33088,33.1584 36.88827,33.47432 z"
       id="path11749"
       inkscape:connector-curvature="0"
       sodipodi:nodetypes="sscsssssss" />
  </g>
</svg>
