<?xml version="1.0" encoding="UTF-8" standalone="no"?>
<!-- Created with Inkscape (http://www.inkscape.org/) -->

<svg
   xmlns:dc="http://purl.org/dc/elements/1.1/"
   xmlns:cc="http://creativecommons.org/ns#"
   xmlns:rdf="http://www.w3.org/1999/02/22-rdf-syntax-ns#"
   xmlns:svg="http://www.w3.org/2000/svg"
   xmlns="http://www.w3.org/2000/svg"
   xmlns:sodipodi="http://sodipodi.sourceforge.net/DTD/sodipodi-0.dtd"
   xmlns:inkscape="http://www.inkscape.org/namespaces/inkscape"
   width="210mm"
   height="297mm"
   viewBox="0 0 744.09448819 1052.3622047"
   id="svg2"
   version="1.1"
   inkscape:version="0.91 r13725"
   sodipodi:docname="FOX.svg">
  <defs
     id="defs4">
    <marker
       inkscape:stockid="Arrow2Lend"
       orient="auto"
       refY="0.0"
       refX="0.0"
       id="marker9826"
       style="overflow:visible;"
       inkscape:isstock="true">
      <path
         id="path9828"
         style="fill-rule:evenodd;stroke-width:0.625;stroke-linejoin:round;stroke:#000000;stroke-opacity:1;fill:#000000;fill-opacity:1"
         d="M 8.7185878,4.0337352 L -2.2072895,0.016013256 L 8.7185884,-4.0017078 C 6.9730900,-1.6296469 6.9831476,1.6157441 8.7185878,4.0337352 z "
         transform="scale(1.1) rotate(180) translate(1,0)" />
    </marker>
    <marker
       inkscape:stockid="Arrow1Sstart"
       orient="auto"
       refY="0.0"
       refX="0.0"
       id="Arrow1Sstart"
       style="overflow:visible"
       inkscape:isstock="true">
      <path
         id="path4170"
         d="M 0.0,0.0 L 5.0,-5.0 L -12.5,0.0 L 5.0,5.0 L 0.0,0.0 z "
         style="fill-rule:evenodd;stroke:#000000;stroke-width:1pt;stroke-opacity:1;fill:#ffffff;fill-opacity:1"
         transform="scale(0.2) translate(6,0)" />
    </marker>
    <marker
       inkscape:stockid="Arrow2Lstart"
       orient="auto"
       refY="0.0"
       refX="0.0"
       id="Arrow2Lstart"
       style="overflow:visible"
       inkscape:isstock="true">
      <path
         id="path4176"
         style="fill-rule:evenodd;stroke-width:0.625;stroke-linejoin:round;stroke:#000000;stroke-opacity:1;fill:#000000;fill-opacity:1"
         d="M 8.7185878,4.0337352 L -2.2072895,0.016013256 L 8.7185884,-4.0017078 C 6.9730900,-1.6296469 6.9831476,1.6157441 8.7185878,4.0337352 z "
         transform="scale(1.1) translate(1,0)" />
    </marker>
    <marker
       inkscape:stockid="Club"
       orient="auto"
       refY="0.0"
       refX="0.0"
       id="Club"
       style="overflow:visible"
       inkscape:isstock="true">
      <path
         id="path4387"
         d="M -1.5971367,-7.0977635 C -3.4863874,-7.0977635 -5.0235187,-5.5606321 -5.0235187,-3.6713813 C -5.0235187,-3.0147015 -4.7851656,-2.4444556 -4.4641095,-1.9232271 C -4.5028609,-1.8911157 -4.5437814,-1.8647646 -4.5806531,-1.8299921 C -5.2030765,-2.6849849 -6.1700514,-3.2751330 -7.3077730,-3.2751330 C -9.1970245,-3.2751331 -10.734155,-1.7380016 -10.734155,0.15124914 C -10.734155,2.0404999 -9.1970245,3.5776313 -7.3077730,3.5776313 C -6.3143268,3.5776313 -5.4391540,3.1355702 -4.8137404,2.4588126 C -4.9384274,2.8137041 -5.0235187,3.1803000 -5.0235187,3.5776313 C -5.0235187,5.4668819 -3.4863874,7.0040135 -1.5971367,7.0040135 C 0.29211394,7.0040135 1.8292454,5.4668819 1.8292454,3.5776313 C 1.8292454,2.7842354 1.5136868,2.0838028 1.0600576,1.5031550 C 2.4152718,1.7663868 3.7718375,2.2973711 4.7661444,3.8340272 C 4.0279463,3.0958289 3.5540908,1.7534117 3.5540908,-0.058529361 L 2.9247554,-0.10514681 L 3.5074733,-0.12845553 C 3.5074733,-1.9403966 3.9580199,-3.2828138 4.6962183,-4.0210121 C 3.7371277,-2.5387813 2.4390549,-1.9946496 1.1299838,-1.7134486 C 1.5341802,-2.2753578 1.8292454,-2.9268556 1.8292454,-3.6713813 C 1.8292454,-5.5606319 0.29211394,-7.0977635 -1.5971367,-7.0977635 z "
         style="fill-rule:evenodd;stroke:#000000;stroke-width:0.74587913pt;stroke-opacity:1;fill:#000000;fill-opacity:1"
         transform="scale(0.6)" />
    </marker>
    <marker
       inkscape:stockid="DotL"
       orient="auto"
       refY="0.0"
       refX="0.0"
       id="DotL"
       style="overflow:visible"
       inkscape:isstock="true">
      <path
         id="path4219"
         d="M -2.5,-1.0 C -2.5,1.7600000 -4.7400000,4.0 -7.5,4.0 C -10.260000,4.0 -12.5,1.7600000 -12.5,-1.0 C -12.5,-3.7600000 -10.260000,-6.0 -7.5,-6.0 C -4.7400000,-6.0 -2.5,-3.7600000 -2.5,-1.0 z "
         style="fill-rule:evenodd;stroke:#000000;stroke-width:1pt;stroke-opacity:1;fill:#000000;fill-opacity:1"
         transform="scale(0.8) translate(7.4, 1)" />
    </marker>
    <marker
       inkscape:stockid="SemiCircleIn"
       orient="auto"
       refY="0.0"
       refX="0.0"
       id="SemiCircleIn"
       style="overflow:visible"
       inkscape:isstock="true">
      <path
         id="path4336"
         d="M -0.37450702,-0.045692580 C -0.37450702,2.7143074 1.8654930,4.9543074 4.6254930,4.9543074 L 4.6254930,-5.0456926 C 1.8654930,-5.0456926 -0.37450702,-2.8056926 -0.37450702,-0.045692580 z "
         style="fill-rule:evenodd;stroke:#000000;stroke-width:1pt;stroke-opacity:1;fill:#000000;fill-opacity:1"
         transform="scale(0.6)" />
    </marker>
    <marker
       inkscape:stockid="Arrow1Mend"
       orient="auto"
       refY="0.0"
       refX="0.0"
       id="Arrow1Mend"
       style="overflow:visible;"
       inkscape:isstock="true">
      <path
         id="path4167"
         d="M 0.0,0.0 L 5.0,-5.0 L -12.5,0.0 L 5.0,5.0 L 0.0,0.0 z "
         style="fill-rule:evenodd;stroke:#000000;stroke-width:1pt;stroke-opacity:1;fill:#ffffff;fill-opacity:1"
         transform="scale(0.4) rotate(180) translate(10,0)" />
    </marker>
    <marker
       inkscape:stockid="Arrow2Lend"
       orient="auto"
       refY="0.0"
       refX="0.0"
       id="Arrow2Lend"
       style="overflow:visible;"
       inkscape:isstock="true">
      <path
         id="path4179"
         style="fill-rule:evenodd;stroke-width:0.625;stroke-linejoin:round;stroke:#eb781e;stroke-opacity:1;fill:#ffffff;fill-opacity:1"
         d="M 8.7185878,4.0337352 L -2.2072895,0.016013256 L 8.7185884,-4.0017078 C 6.9730900,-1.6296469 6.9831476,1.6157441 8.7185878,4.0337352 z "
         transform="scale(1.1) rotate(180) translate(1,0)" />
    </marker>
    <marker
       inkscape:stockid="DiamondLend"
       orient="auto"
       refY="0.0"
       refX="0.0"
       id="DiamondLend"
       style="overflow:visible"
       inkscape:isstock="true">
      <path
         id="path4255"
         d="M 0,-7.0710768 L -7.0710894,0 L 0,7.0710589 L 7.0710462,0 L 0,-7.0710768 z "
         style="fill-rule:evenodd;stroke:#000000;stroke-width:1pt;stroke-opacity:1;fill:#000000;fill-opacity:1"
         transform="scale(0.8) translate(-7,0)" />
    </marker>
    <marker
       inkscape:stockid="EmptyTriangleInL"
       orient="auto"
       refY="0.0"
       refX="0.0"
       id="EmptyTriangleInL"
       style="overflow:visible"
       inkscape:isstock="true">
      <path
         id="path4309"
         d="M 5.77,0.0 L -2.88,5.0 L -2.88,-5.0 L 5.77,0.0 z "
         style="fill-rule:evenodd;fill:#ffffff;stroke:#000000;stroke-width:1pt;stroke-opacity:1"
         transform="scale(-0.8) translate(-6,0)" />
    </marker>
    <marker
       inkscape:stockid="Tail"
       orient="auto"
       refY="0.0"
       refX="0.0"
       id="Tail"
       style="overflow:visible"
       inkscape:isstock="true">
      <g
         id="g4194"
         transform="scale(-1.2)"
         style="stroke:#000000;stroke-opacity:1;fill:#000000;fill-opacity:1">
        <path
           id="path4196"
           d="M -3.8048674,-3.9585227 L 0.54352094,0"
           style="fill:#000000;fill-rule:evenodd;stroke:#000000;stroke-width:0.8;stroke-linecap:round;stroke-opacity:1;fill-opacity:1" />
        <path
           id="path4198"
           d="M -1.2866832,-3.9585227 L 3.0617053,0"
           style="fill:#000000;fill-rule:evenodd;stroke:#000000;stroke-width:0.8;stroke-linecap:round;stroke-opacity:1;fill-opacity:1" />
        <path
           id="path4200"
           d="M 1.3053582,-3.9585227 L 5.6537466,0"
           style="fill:#000000;fill-rule:evenodd;stroke:#000000;stroke-width:0.8;stroke-linecap:round;stroke-opacity:1;fill-opacity:1" />
        <path
           id="path4202"
           d="M -3.8048674,4.1775838 L 0.54352094,0.21974226"
           style="fill:#000000;fill-rule:evenodd;stroke:#000000;stroke-width:0.8;stroke-linecap:round;stroke-opacity:1;fill-opacity:1" />
        <path
           id="path4204"
           d="M -1.2866832,4.1775838 L 3.0617053,0.21974226"
           style="fill:#000000;fill-rule:evenodd;stroke:#000000;stroke-width:0.8;stroke-linecap:round;stroke-opacity:1;fill-opacity:1" />
        <path
           id="path4206"
           d="M 1.3053582,4.1775838 L 5.6537466,0.21974226"
           style="fill:#000000;fill-rule:evenodd;stroke:#000000;stroke-width:0.8;stroke-linecap:round;stroke-opacity:1;fill-opacity:1" />
      </g>
    </marker>
    <marker
       inkscape:stockid="Arrow2Mend"
       orient="auto"
       refY="0.0"
       refX="0.0"
       id="Arrow2Mend"
       style="overflow:visible;"
       inkscape:isstock="true">
      <path
         id="path4185"
         style="fill-rule:evenodd;stroke-width:0.625;stroke-linejoin:round;stroke:#000000;stroke-opacity:1;fill:#000000;fill-opacity:1"
         d="M 8.7185878,4.0337352 L -2.2072895,0.016013256 L 8.7185884,-4.0017078 C 6.9730900,-1.6296469 6.9831476,1.6157441 8.7185878,4.0337352 z "
         transform="scale(0.6) rotate(180) translate(0,0)" />
    </marker>
    <marker
       inkscape:stockid="Arrow1Lend"
       orient="auto"
       refY="0.0"
       refX="0.0"
       id="marker4460"
       style="overflow:visible;"
       inkscape:isstock="true">
      <path
         id="path4462"
         d="M 0.0,0.0 L 5.0,-5.0 L -12.5,0.0 L 5.0,5.0 L 0.0,0.0 z "
         style="fill-rule:evenodd;stroke:#000000;stroke-width:1pt;stroke-opacity:1;fill:#000000;fill-opacity:1"
         transform="scale(0.8) rotate(180) translate(12.5,0)" />
    </marker>
    <marker
       inkscape:stockid="Arrow1Lstart"
       orient="auto"
       refY="0.0"
       refX="0.0"
       id="Arrow1Lstart"
       style="overflow:visible"
       inkscape:isstock="true">
      <path
         id="path4158"
         d="M 0.0,0.0 L 5.0,-5.0 L -12.5,0.0 L 5.0,5.0 L 0.0,0.0 z "
         style="fill-rule:evenodd;stroke:#000000;stroke-width:1pt;stroke-opacity:1;fill:#000000;fill-opacity:1"
         transform="scale(0.8) translate(12.5,0)" />
    </marker>
    <marker
       inkscape:stockid="Arrow1Lend"
       orient="auto"
       refY="0.0"
       refX="0.0"
       id="Arrow1Lend"
       style="overflow:visible;"
       inkscape:isstock="true">
      <path
         id="path4161"
         d="M 0.0,0.0 L 5.0,-5.0 L -12.5,0.0 L 5.0,5.0 L 0.0,0.0 z "
         style="fill-rule:evenodd;stroke:#000000;stroke-width:1pt;stroke-opacity:1;fill:#000000;fill-opacity:1"
         transform="scale(0.8) rotate(180) translate(12.5,0)" />
    </marker>
  </defs>
  <sodipodi:namedview
     id="base"
     pagecolor="#ffffff"
     bordercolor="#666666"
     borderopacity="1.0"
     inkscape:pageopacity="0.0"
     inkscape:pageshadow="2"
     inkscape:zoom="1.3224234"
     inkscape:cx="199.42368"
     inkscape:cy="660.5928"
     inkscape:document-units="px"
     inkscape:current-layer="layer1"
     showgrid="false"
     inkscape:window-width="1920"
     inkscape:window-height="1017"
     inkscape:window-x="-8"
     inkscape:window-y="-8"
     inkscape:window-maximized="1" />
  <metadata
     id="metadata7">
    <rdf:RDF>
      <cc:Work
         rdf:about="">
        <dc:format>image/svg+xml</dc:format>
        <dc:type
           rdf:resource="http://purl.org/dc/dcmitype/StillImage" />
        <dc:title></dc:title>
      </cc:Work>
    </rdf:RDF>
  </metadata>
  <g
     inkscape:label="Layer 1"
     inkscape:groupmode="layer"
     id="layer1">
    <path
       style="fill:none;fill-rule:evenodd;stroke:#000000;stroke-width:1px;stroke-linecap:butt;stroke-linejoin:miter;stroke-opacity:1"
       d="m 400,345.93363 c 0,0 6.42857,-2.14285 12.85714,4.28572 6.42857,6.42857 7.85715,19.28571 7.85715,19.28571 0,0 -2.85715,45.71429 7.14285,66.42857 10,20.71429 5.71429,21.42857 5.71429,21.42857 l 3.57143,-7.14285 2.85714,15 2.14286,-6.42857 c 0,0 19.28571,22.85714 50,18.57142 30.71428,-4.28571 45.71428,-16.42857 58.57143,-31.42857 12.85714,-15 17.14285,-15.71428 17.14285,-15.71428 l -10.71428,2.85714 11.42857,-7.14286 -7.14286,1.42857 6.42857,-5 -4.28571,0 2.85714,-3.57142 -0.71428,-5 c 0,0 10,-37.14286 38.57142,-34.28572 -15,-16.42857 -33.57142,-11.42857 -33.57142,-11.42857 l -54.28572,62.85714 -55,7.85715 L 435.71429,383.07649 425,350.21935 l -16.42857,-9.28572 -17.14286,0.71429 z"
       id="path11751"
       inkscape:connector-curvature="0"
       sodipodi:nodetypes="cscsccccssccccccccccccccccc" />
    <path
       style="fill:#ff9955;fill-opacity:1;fill-rule:evenodd;stroke:#000000;stroke-width:1px;stroke-linecap:butt;stroke-linejoin:miter;stroke-opacity:1"
       d="m 325.56977,372.20774 c 0,0 33.50235,-18.70948 29.98491,-1.71649 -6.52499,31.5226 20.5476,56.94823 20.5476,56.94823 l -0.0149,72.86064 -17.84946,0.88567 c 0,0 2.05041,-7.16285 12.78798,-7.26594 0,0 4.51847,-38.8484 -4.14722,-59.96296 -5.97652,-14.56223 -27.93815,-8.30361 -40.97297,-26.75077 -28.79486,-40.75108 -0.33597,-34.99838 -0.33597,-34.99838 z"
       id="path11728-7"
       inkscape:connector-curvature="0"
       sodipodi:nodetypes="cscccsssc" />
    <path
       style="fill:#ff9955;fill-opacity:1;fill-rule:evenodd;stroke:#000000;stroke-width:1px;stroke-linecap:butt;stroke-linejoin:miter;stroke-opacity:1"
       d="m 264.97175,387.90095 9.28571,45.71429 -0.71428,81.42857 c 0,0 -9.28572,-4.28572 -13.57143,2.85714 -4.28571,7.14286 18.57143,2.14286 18.57143,2.14286 l 3.57143,-85 c 0,0 3.57143,-37.14286 -7.85715,-42.85714 -11.42857,-5.71429 -9.28571,-4.28572 -9.28571,-4.28572 z"
       id="path11711"
       inkscape:connector-curvature="0" />
    <path
       style="fill:#ff9955;fill-opacity:1;stroke:#000000;stroke-width:1;stroke-linejoin:round;stroke-miterlimit:4;stroke-dasharray:none;stroke-dashoffset:0;stroke-opacity:1"
       d="M 349.19336 313.95508 A 51.979841 69.898703 72.614714 0 0 328.76758 315.61328 A 51.979841 69.898703 72.614714 0 0 276.77539 346.92578 C 275.60509 342.74942 274.56445 336.66865 273.73438 327.87305 C 273.46911 325.06219 262.33984 333.51953 262.33984 333.51953 C 262.33984 333.51953 257.92697 381.98644 269.93555 395.62695 C 270.80841 396.61844 271.64662 397.52024 272.4668 398.38086 A 51.979841 69.898703 72.614714 0 0 310.75 420.56836 L 313.93164 436.23438 L 313.2168 517.66211 C 313.2168 517.66211 303.93219 513.37667 299.64648 520.51953 C 295.36077 527.66239 318.2168 522.66211 318.2168 522.66211 L 321.78906 437.66211 C 321.78906 437.66211 322.49732 430.20321 322.26172 421.46289 A 51.979841 69.898703 72.614714 0 0 340.18945 419.82617 A 51.979841 69.898703 72.614714 0 0 371.125 407.62305 C 371.22826 407.77442 371.32259 407.9243 371.42773 408.07617 C 384.28487 426.6476 406.30612 420.59982 412.14258 435.21875 C 420.60518 456.41552 415.71484 495.21875 415.71484 495.21875 C 404.97677 495.21877 402.85742 502.36133 402.85742 502.36133 L 420.71484 501.64844 L 421.42773 428.79102 C 421.42773 428.79102 394.95887 403.18261 401.42773 371.64844 C 401.84122 369.63281 402.09154 367.78258 402.22656 366.05469 A 51.979841 69.898703 72.614714 0 0 402.73047 354.23438 A 51.979841 69.898703 72.614714 0 0 400.11719 344.06055 C 411.7655 344.81827 425.91035 349.50051 427.37695 379.06641 C 428.14777 394.60566 428.35982 450.31517 467.13672 465.10938 C 501.82595 478.344 539.04331 463.05356 554.76562 417.42383 C 573.96848 361.69289 605.94727 380.70703 605.94727 380.70703 C 605.94727 380.70703 598.28421 356.46816 566.73047 356.16406 C 523.70259 355.74937 516.19035 409.19222 480.29883 408.80859 C 450.74144 408.49267 444.19904 380.06049 443.41016 375.33594 C 438.10137 343.54193 413.95651 336.61705 398.43164 336.31836 C 397.59001 336.30217 396.81688 336.31964 396.06836 336.34766 A 51.979841 69.898703 72.614714 0 0 349.19336 313.95508 z "
       id="path10159" />
    <path
       style="fill:#ffffff;fill-opacity:1;fill-rule:evenodd;stroke:#000000;stroke-width:0.78768367px;stroke-linecap:butt;stroke-linejoin:miter;stroke-opacity:1"
       d="m 259.70012,332.83402 c 0,0 -4.40697,20.77285 -3.88561,38.50188 0.52138,17.72905 1.00354,21.87651 1.00354,21.87651 l 1.16787,-2.64697 1.20162,9.04825 0.4604,-3.39782 2.1333,6.02525 -0.0131,-4.52721 4.01736,7.14725 -1.19401,-6.40739 6.60779,8.64285 -1.19073,-5.27559 6.3716,8.26682 -1.42474,-4.89712 6.83852,7.13257 -0.95128,-3.76775 6.83636,6.37804 7.06165,2.98143 -8.49184,-9.76488 3.29572,1.49194 -7.33375,-15.80723 4.94903,4.12423 -7.08779,-12.0358 3.76375,0.73496 -4.48537,-6.39028 2.35098,-0.0122 -3.54062,-4.8861 c 0,0 -10.81016,1.56532 -11.40557,-41.81777 z"
       id="path11882"
       inkscape:connector-curvature="0"
       sodipodi:nodetypes="csccccccccccccccccccccccccccc" />
    <path
       style="fill:#ffffff;fill-rule:evenodd;stroke:#000000;stroke-width:1;stroke-linecap:butt;stroke-linejoin:miter;stroke-miterlimit:4;stroke-dasharray:none;stroke-opacity:1"
       d="m 321.42869,270.86129 21.68049,13.55443 -20.37743,-4.41208 9.43028,14.69929 -9.26853,-4.32734 3.45138,10.02943 -4.73889,-3.55755 -2.21958,10.48923 -1.50046,-13.82617 z"
       id="path11884"
       inkscape:connector-curvature="0" />
    <path
       style="fill:#ff9955;fill-opacity:1;stroke:#000000;stroke-width:1;stroke-linejoin:round;stroke-miterlimit:4;stroke-dasharray:none;stroke-dashoffset:0;stroke-opacity:1"
       d="M 345.70898 185.35938 C 339.57972 185.26007 333.03689 185.63952 326.97461 186.94922 C 307.57528 191.14026 300.62109 219.44336 300.62109 219.44336 L 295.16992 233.73828 A 52.857143 53.92857 0 0 0 265.71484 224.50586 A 52.857143 53.92857 0 0 0 252.05859 226.35938 L 252.25391 225.66016 C 252.25391 225.66016 258.96307 209.55288 251.07031 200.95312 C 243.17757 192.35335 229.51367 186.73047 229.51367 186.73047 C 229.51367 186.73047 219.89729 197.54444 226.125 209.16797 C 230.53427 217.39755 235.32627 226.51072 238.38477 232.33594 A 52.857143 53.92857 0 0 0 212.85742 278.43359 A 52.857143 53.92857 0 0 0 212.9707 281.71289 C 211.74084 283.28144 210.51204 284.91333 209.28516 286.64844 C 180.56571 327.26474 93.572266 328.79102 93.572266 328.79102 L 87.142578 336.64844 C 87.142578 336.64844 100.00084 340.21959 163.57227 343.79102 C 213.37758 346.58907 270.62959 341.05522 293.7793 324.10156 A 52.857143 53.92857 0 0 0 310.65234 306.70117 L 315.68555 311.41602 L 317.01562 298.24023 L 325.38672 304.44336 L 320.08398 293.57422 L 329.34375 296.34961 L 321.8125 286.01562 L 333.34961 288.95898 L 324.63086 277.83789 L 341.86133 281.19922 L 327.54883 271.06445 L 344.63086 272.32031 L 316.90039 264.69336 L 316.83008 264.84961 A 52.857143 53.92857 0 0 0 306.88672 244.73242 C 312.75762 241.78603 335.13332 230.56486 352.84961 221.86914 C 373.0003 211.97854 370.68164 188.10742 370.68164 188.10742 C 370.68164 188.10742 359.19337 185.57786 345.70898 185.35938 z "
       id="path10106" />
    <path
       style="fill:none;fill-rule:evenodd;stroke:#000000;stroke-width:1;stroke-linecap:butt;stroke-linejoin:round;stroke-miterlimit:4;stroke-dasharray:none;stroke-dashoffset:0;stroke-opacity:1;marker-start:url(#marker9826);marker-mid:url(#Arrow1Mend);marker-end:url(#Arrow1Sstart)"
       d="m 264.28571,317.3622 c 0,0 -60.71428,39.28571 -184.285706,17.14285"
       id="path3352"
       inkscape:connector-curvature="0"
       sodipodi:nodetypes="cc" />
    <circle
       style="fill:#000000;stroke-width:1;stroke-miterlimit:4;stroke-dasharray:none;stroke-dashoffset:0"
       id="path5632"
       cx="269.25531"
       cy="258.20538"
       r="13.131983" />
    <ellipse
       style="fill:#ffffff;stroke-width:1;stroke-miterlimit:4;stroke-dasharray:none;stroke-dashoffset:0"
       id="path5634"
       cx="269.08405"
       cy="262.55945"
       rx="11.111678"
       ry="7.8286819" />
    <ellipse
       style="fill:#000000;stroke-width:1;stroke-miterlimit:4;stroke-dasharray:none;stroke-dashoffset:0"
       id="path5632-4"
       cx="225.50084"
       cy="237.95227"
       inkscape:transform-center-x="-0.38511063"
       inkscape:transform-center-y="1.5941428"
       rx="24.24366"
       ry="13.637059"
       transform="matrix(0.86296427,0.50526495,-0.50526495,0.86296427,0,0)" />
    <circle
       style="fill:#000000;stroke-width:1;stroke-miterlimit:4;stroke-dasharray:none;stroke-dashoffset:0"
       id="path5632-7"
       cx="218.74773"
       cy="256.18509"
       r="13.131983" />
    <ellipse
       style="fill:#ffffff;stroke-width:1;stroke-miterlimit:4;stroke-dasharray:none;stroke-dashoffset:0"
       id="path5634-3"
       cx="218.5764"
       cy="260.03406"
       rx="11.111678"
       ry="7.5761442"
       inkscape:transform-center-x="1.5152288"
       inkscape:transform-center-y="1.5152288" />
    <ellipse
       style="fill:#000000;stroke-width:1;stroke-miterlimit:4;stroke-dasharray:none;stroke-dashoffset:0"
       id="path5634-3-3"
       cx="217.48503"
       cy="256.3429"
       rx="5.5558391"
       ry="5.2085991" />
    <ellipse
       style="fill:#000000;stroke-width:1;stroke-miterlimit:4;stroke-dasharray:none;stroke-dashoffset:0"
       id="path5634-3-3-1"
       cx="265.97235"
       cy="258.71048"
       rx="5.5558391"
       ry="5.2085991" />
    <ellipse
       style="fill:#ffffff;stroke-width:1;stroke-miterlimit:4;stroke-dasharray:none;stroke-dashoffset:0"
       id="path5634-3-3-2"
       cx="215.71727"
       cy="254.89082"
       rx="2.0203052"
       ry="1.8940361" />
    <ellipse
       style="fill:#ffffff;stroke-width:1;stroke-miterlimit:4;stroke-dasharray:none;stroke-dashoffset:0"
       id="path5634-3-3-2-2"
       cx="263.69952"
       cy="257.70029"
       rx="2.0203052"
       ry="1.8940361" />
    <path
       style="fill:#ffb380;fill-opacity:1;fill-rule:evenodd;stroke:none;stroke-width:1px;stroke-linecap:butt;stroke-linejoin:miter;stroke-opacity:1"
       d="m 300.53939,222.55774 c 0,0 6.09029,-24.78769 23.07989,-28.45812 16.98962,-3.67043 38.27735,1.01479 38.27735,1.01479 0,0 2.03002,20.90608 -15.61764,29.5681 -17.64764,8.66204 -43.96512,21.8832 -43.96512,21.8832 l -8.19728,-7.17074 z"
       id="path10108-3"
       inkscape:connector-curvature="0"
       sodipodi:nodetypes="cscsccc" />
    <path
       style="fill:#ffccaa;fill-rule:evenodd;stroke:none;stroke-width:1px;stroke-linecap:butt;stroke-linejoin:miter;stroke-opacity:1"
       d="m 294.87495,240.45068 c 0,0 5.2995,-20.53553 26.36536,-21.69015 21.06588,-1.15463 -19.29948,27.61523 -19.29948,27.61523 z"
       id="path10125"
       inkscape:connector-curvature="0" />
  </g>
</svg>
